<?xml version="1.0" encoding="utf-8"?>
<!-- Generator: Adobe Illustrator 18.0.0, SVG Export Plug-In . SVG Version: 6.00 Build 0)  -->
<!DOCTYPE svg PUBLIC "-//W3C//DTD SVG 1.1//EN" "http://www.w3.org/Graphics/SVG/1.1/DTD/svg11.dtd">
<svg version="1.1" id="icon_x5F_childcare" xmlns="http://www.w3.org/2000/svg" xmlns:xlink="http://www.w3.org/1999/xlink" x="0px"
	 y="0px" viewBox="0 0 257 257.9" enable-background="new 0 0 257 257.9" xml:space="preserve">
<g>
	<circle fill="#90CCD2" cx="127.3" cy="127.8" r="124.8"/>
	<path fill="#85B6B8" d="M250.3,148.7l-60.5-60.5l-115,95.6l67.9,67.9C197.5,244.8,241.3,202.6,250.3,148.7z"/>
	<path fill="#FFFFFF" d="M68.7,146.2c0,0,0,16.1,0.4,18.5c0.4,2.5,60,13.4,60,13.4l64.8-12.4c0,0,0.2-19.2,0.2-24.4
		c0,0-42.2,8.5-64.6,5.4C107.1,143.6,68.7,146.2,68.7,146.2z"/>
	<path fill="#FAD5A1" d="M68.7,146.2v-21.3l125.4-3.3v20.9C194.1,142.4,151.4,162.9,68.7,146.2z"/>
	<path fill="#FFFFFF" d="M129.1,142.3c19.9,0,27.4-13.4,27.4-13.4c3.5,2.4,42.8,14.4,43.6-16.3c0.9-32-31.3-30.8-31.3-30.8
		s-9.5-16.8-39-18.8C101.8,61.1,89,78.5,89,78.5L86.1,81c0,0-34.6-1.2-31.4,30.8c3.2,31.7,39.2,21.8,43.6,16.3
		C98.3,128.2,109.2,142.3,129.1,142.3z"/>
	<path fill="#FAD5A1" d="M69.6,164.6c0,0,31.4,9.2,64.6,8.6c30.2-0.6,59.2-8.8,59.2-8.8l0.5-0.1c-0.2,7.6-1.1,13.4-2.2,16
		c-4.7,10.7-29.6,15.4-58.7,16c-31.2,0.6-56.3-5.9-61-16c-1.3-2.9-2.3-8.8-2.9-15.6H69.6z"/>
	<path fill="#EB706B" d="M74.3,161.9c0,0,27.1,7.5,38.5,5.9c0,0-4-8.9-17.3-11C82.2,154.7,74.3,161.9,74.3,161.9z"/>
	<path fill="#F0968F" d="M133,170.1c0,0,24.1-0.6,27.6-2.4c0,0-5.3-9.3-14.8-6.9C136.3,163.2,133,170.1,133,170.1z"/>
	<path fill="#EB706B" d="M154.4,156.6c0,0,14.8,9.3,26,6c11.2-3.3,10.7-14.1,10.7-14.1L154.4,156.6z"/>
	<path fill="#F0968F" d="M111,156.1l25.2,0.6c0,0-4.2,10-12.8,9.1C114.8,164.9,111,156.1,111,156.1z"/>
	<path fill="none" stroke="#974E3D" stroke-width="4" stroke-linecap="round" stroke-linejoin="round" stroke-miterlimit="10" d="
		M191.2,143.1"/>
	<circle fill="#F0968F" cx="82.1" cy="98.2" r="5.3"/>
	<circle fill="#D9A35F" cx="130.4" cy="104" r="5.3"/>
	<circle fill="#F0968F" cx="157.3" cy="93.1" r="6.6"/>
	<circle fill="#98CB81" cx="102.2" cy="91.4" r="4.2"/>
	<circle fill="#D9A35F" cx="178.8" cy="99.2" r="5.5"/>
	
		<rect x="102.1" y="107.3" transform="matrix(-0.782 0.6233 -0.6233 -0.782 262.7418 130.5245)" fill="#F0968F" width="12.8" height="7.9"/>
	
		<rect x="146" y="110" transform="matrix(-0.7598 -0.6501 0.6501 -0.7598 191.7388 297.84)" fill="#98CB81" width="9.7" height="6.9"/>
	<g>
		<path fill="#E62F46" d="M139.2,74.8"/>
		<path fill="#DC5065" d="M133.5,39.9c5.9,0.8,16.3,11.2,17.7,22.6c1.3,11.5-7.2,28.1-27.5,24.2c-13.7-2.6-22.6-17.4-13.4-31.4
			S129.5,39.3,133.5,39.9z"/>
		<circle fill="#FFFFFF" cx="135.1" cy="53.4" r="2.7"/>
		<circle fill="#FFFFFF" cx="139.8" cy="64" r="2.7"/>
		<circle fill="#FFFFFF" cx="124.5" cy="73" r="2.7"/>
		<circle fill="#FFFFFF" cx="135.7" cy="76.1" r="2.7"/>
		<circle fill="#FFFFFF" cx="119.8" cy="62.9" r="2.7"/>
		<circle fill="#FFFFFF" cx="131" cy="62.5" r="2.7"/>
	</g>
</g>
</svg>
